<?xml version="1.0" encoding="UTF-8"?>
<svg id="Layer_2" data-name="Layer 2" xmlns="http://www.w3.org/2000/svg" viewBox="0 0 1234.69 137.95">
  <defs>
    <style>
      .cls-1 {
        fill: #231f20;
        stroke-width: 0px;
      }
    </style>
  </defs>
  <g id="Layer_1-2" data-name="Layer 1">
    <g>
      <path class="cls-1" d="M149.61,99.03c0,21.68-15.44,38.92-60.27,38.92H0V0h92.95c43.19,0,53.54,19.71,53.54,37.44,0,16.26-8.54,22.01-16.92,27.26v2.96c12.32,7.23,20.04,16.09,20.04,31.37ZM54.03,40.89v14.12h32.68c7.72,0,8.21-5.42,8.21-6.9,0-2.14-.49-7.23-8.21-7.23h-32.68ZM95.09,89.67c0-1.31-.33-7.06-7.88-7.06h-33.17v14.29h33.17c7.56,0,7.88-6.08,7.88-7.23Z"/>
      <path class="cls-1" d="M255.71,137.95l-16.09-32.02h-27.75v32.02h-54.03V0h83.43c39.09,0,61.91,15.77,61.91,54.85,0,17.9-7.55,30.71-17.9,38.92l23.32,44.18h-52.88ZM211.86,66.02h25.29c8.21,0,11.83-4.27,11.83-10.67s-3.61-10.67-11.83-10.67h-25.29v21.35Z"/>
      <path class="cls-1" d="M422.24,123.01h-53.04l-4.6,14.95h-55.67L357.86,0h75.55l48.94,137.95h-55.67l-4.43-14.95ZM410.25,83.43l-10.02-33.01h-9.03l-10.02,33.01h29.07Z"/>
      <path class="cls-1" d="M449.5,0h55.67l28.41,87.37h5.42L567.26,0h55.67l-48.94,137.95h-75.55L449.5,0Z"/>
      <path class="cls-1" d="M627.86,0h129.74v42.87h-75.71v9.2h72.75v34h-72.75v9.03h75.71v42.86h-129.74V0Z"/>
      <path class="cls-1" d="M767.46,0h54.03v92.95h69.63v45h-123.66V0Z"/>
      <path class="cls-1" d="M901.8,0h54.03v137.95h-54.03V0Z"/>
      <path class="cls-1" d="M965.68,0h129.41v44.84h-75.38v9.52h72.59v38.27h-72.59v45.33h-54.03V0Z"/>
      <path class="cls-1" d="M1104.95,0h129.74v42.87h-75.71v9.2h72.75v34h-72.75v9.03h75.71v42.86h-129.74V0Z"/>
    </g>
  </g>
</svg>